<svg width="31" height="29" viewBox="0 0 31 29" fill="none" xmlns="http://www.w3.org/2000/svg">
<path d="M11.625 25.375H6.45833C5.0375 25.375 3.875 24.2875 3.875 22.9583V6.04167C3.875 4.7125 5.0375 3.625 6.45833 3.625H11.625C13.0458 3.625 14.2083 4.7125 14.2083 6.04167V22.9583C14.2083 24.2875 13.0458 25.375 11.625 25.375ZM19.375 25.375H24.5417C25.9625 25.375 27.125 24.2875 27.125 22.9583V16.9167C27.125 15.5875 25.9625 14.5 24.5417 14.5H19.375C17.9542 14.5 16.7917 15.5875 16.7917 16.9167V22.9583C16.7917 24.2875 17.9542 25.375 19.375 25.375ZM27.125 9.66667V6.04167C27.125 4.7125 25.9625 3.625 24.5417 3.625H19.375C17.9542 3.625 16.7917 4.7125 16.7917 6.04167V9.66667C16.7917 10.9958 17.9542 12.0833 19.375 12.0833H24.5417C25.9625 12.0833 27.125 10.9958 27.125 9.66667Z" fill="#F0D85A"/>
</svg>
