<svg width="21" height="22" viewBox="0 0 21 22" fill="none" xmlns="http://www.w3.org/2000/svg">
<path opacity="0.6" d="M10.341 0.149612C13.2312 0.149853 15.5917 2.48194 15.592 5.34395C15.592 7.34863 14.4336 9.07789 12.756 9.94551C17.1434 10.8049 20.4504 13.9047 20.4504 17.6398C20.4502 18.5809 19.8834 19.2856 19.0529 19.8068C18.224 20.327 17.1102 20.6797 15.9582 20.9211C13.6518 21.4045 11.1393 21.4504 10.3 21.4504C7.79656 21.4504 5.45932 21.1889 3.69745 20.6926C2.54648 20.3689 1.66401 19.957 1.06659 19.4523C0.465036 18.9441 0.149695 18.3383 0.149597 17.6398C0.149597 13.8908 3.49202 10.7779 7.91522 9.93965C6.24237 9.07335 5.08905 7.34229 5.08905 5.34395C5.08931 2.4818 7.45058 0.149612 10.341 0.149612ZM10.3 11.5217C7.99139 11.5217 5.90364 12.2172 4.39667 13.3332C2.88957 14.4494 1.97089 15.9785 1.97089 17.6496C1.9709 17.7329 2.00645 17.8305 2.09686 17.9416C2.18761 18.053 2.32828 18.1706 2.52167 18.2902C2.90891 18.5298 3.48536 18.7633 4.22577 18.967C5.70453 19.3737 7.81024 19.6555 10.3 19.6555C12.7897 19.6555 14.8954 19.3737 16.3742 18.967C17.1146 18.7633 17.6911 18.5298 18.0783 18.2902C18.2717 18.1706 18.4124 18.053 18.5031 17.9416C18.5935 17.8305 18.6291 17.7329 18.6291 17.6496C18.6291 15.9785 17.7104 14.4494 16.2033 13.3332C14.6963 12.2172 12.6086 11.5217 10.3 11.5217ZM10.341 1.9543C8.44472 1.9543 6.91059 3.473 6.91034 5.34395C6.91034 7.21511 8.44456 8.73457 10.341 8.73457C12.2372 8.73433 13.7707 7.21496 13.7707 5.34395C13.7704 3.47315 12.2371 1.95454 10.341 1.9543Z" fill="#ECEAE7" stroke="#ECEAE7" stroke-width="0.3"/>
</svg>
