<svg width="22" height="22" viewBox="0 0 22 22" fill="none" xmlns="http://www.w3.org/2000/svg">
<g opacity="0.6">
<path d="M11.3912 0.716949C12.3401 0.0132548 13.6812 -0.0199591 15.5826 0.533356C18.1117 1.2678 20.2204 3.37624 20.9547 5.90543C21.4733 7.67841 21.4763 8.97708 20.8941 9.9064L20.7701 10.0871C20.3441 10.6566 19.7455 10.9684 19.1324 11.1378C18.5205 11.3069 17.8849 11.3371 17.3707 11.3371H14.0504C12.7771 11.3371 11.7926 10.9761 11.1295 10.2336C10.4692 9.49426 10.15 8.40189 10.15 6.98746V4.11734C10.15 3.60298 10.1804 2.96658 10.3482 2.35464C10.5163 1.7418 10.8257 1.143 11.3902 0.716949H11.3912ZM13.3306 1.94742C12.9354 1.94742 12.6535 2.02501 12.481 2.1564L12.48 2.15738C12.3216 2.27519 12.1895 2.48255 12.0982 2.80972C12.0071 3.13642 11.9605 3.56927 11.9605 4.11734V6.99722C11.9605 8.10481 12.1744 8.72993 12.5211 9.08218C12.8659 9.43242 13.3756 9.547 14.0601 9.54703H17.3804C17.9233 9.54702 18.3535 9.5005 18.6802 9.40933C19.0073 9.31806 19.2182 9.18565 19.3414 9.02554C19.4861 8.83487 19.5654 8.53073 19.5533 8.09C19.5413 7.6517 19.4396 7.09812 19.2466 6.42984L19.1275 6.07242C18.4717 4.30347 16.8983 2.80224 15.0982 2.2814L15.0963 2.28043C14.3635 2.05269 13.7794 1.94746 13.3306 1.94742Z" fill="#ECEAE7" stroke="#ECEAE7" stroke-width="0.3"/>
<path d="M8.13202 1.55984C8.62217 1.46441 9.0888 1.77579 9.19647 2.25418L9.19745 2.25809C9.29312 2.7484 8.98166 3.21584 8.50311 3.32352L8.50018 3.32449C4.19017 4.2083 1.36117 8.33158 2.07831 12.7229C2.62799 16.1192 5.38814 18.8793 8.78436 19.429C13.1955 20.1362 17.3086 17.2977 18.1828 12.968C18.279 12.4756 18.7593 12.1642 19.2394 12.26L19.3293 12.2825C19.7399 12.4074 20.0015 12.8078 19.9611 13.2268L19.9474 13.3167C18.983 18.0578 14.8403 21.3372 10.1203 21.3372C9.58281 21.3372 9.03437 21.2968 8.48553 21.2054V21.2044C4.46204 20.5547 1.16414 17.3725 0.352722 13.3977L0.28241 13.011C-0.580221 7.67282 2.86025 2.63626 8.13007 1.55984H8.13202Z" fill="#ECEAE7" stroke="#ECEAE7" stroke-width="0.3"/>
</g>
</svg>
