<svg width="24" height="21" viewBox="0 0 24 21" fill="none" xmlns="http://www.w3.org/2000/svg">
<g opacity="0.6">
<path d="M13.0023 6.09556C13.5283 6.09556 13.9631 6.53053 13.9632 7.0565C13.9632 7.58258 13.5283 8.01743 13.0023 8.01743H6.51593C5.98996 8.01729 5.55499 7.58249 5.55499 7.0565C5.55514 6.53062 5.99005 6.0957 6.51593 6.09556H13.0023Z" fill="#ECEAE7" stroke="#ECEAE7" stroke-width="0.3"/>
<path d="M21.6558 7.12253C22.805 7.15737 23.6927 8.06527 23.6929 9.18601V11.4135C23.6929 12.5328 22.8064 13.4421 21.688 13.477H19.5328C17.8293 13.477 16.3745 12.2135 16.2369 10.5737L16.2252 10.3969C16.1903 9.51632 16.5299 8.66851 17.1675 8.04148C17.7379 7.45001 18.5446 7.12253 19.3922 7.12253H21.6558ZM19.4029 9.04441C19.0623 9.04441 18.7559 9.17025 18.5377 9.39792L18.5338 9.40281C18.2524 9.6746 18.1187 10.0399 18.1568 10.4028L18.1578 10.4077C18.205 11.0298 18.8191 11.5551 19.5328 11.5551H21.6509C21.7013 11.5551 21.771 11.5003 21.7711 11.4135V9.18601C21.7709 9.13533 21.742 9.08504 21.6812 9.06003L21.6089 9.04441H19.4029Z" fill="#ECEAE7" stroke="#ECEAE7" stroke-width="0.3"/>
<path d="M16.2463 0.149612C16.5076 0.149622 16.8482 0.162225 17.2023 0.216995L17.2033 0.216019C18.8326 0.403802 20.1873 1.11757 21.134 2.21992C22.0802 3.32181 22.6124 4.80344 22.6125 6.51582V8.08418C22.6123 8.61003 22.1774 9.04403 21.6516 9.04414H19.4025C19.0619 9.04418 18.7565 9.17095 18.5383 9.39864L18.5363 9.40059L18.4299 9.29414L18.5353 9.40059L18.5226 9.41328C18.2876 9.64004 18.1617 9.94061 18.1535 10.259L18.1574 10.3967C18.2045 11.0189 18.8186 11.5441 19.5324 11.5441H21.6516C22.1774 11.5443 22.6123 11.9792 22.6125 12.5051V14.0734C22.6124 15.9723 21.9755 17.5694 20.8547 18.6916C19.7338 19.8137 18.1398 20.4503 16.2463 20.4504H6.51581C4.62216 20.4503 3.02827 19.8134 1.90741 18.6926C0.786554 17.5717 0.149686 15.9778 0.149597 14.0842V6.51582C0.149679 4.81992 0.673647 3.34933 1.61151 2.2502C2.54985 1.1506 3.89589 0.431039 5.5246 0.226761V0.227737C5.82103 0.183949 6.16225 0.149637 6.51581 0.149612H16.2463ZM6.14471 2.08614L5.7785 2.12422C4.62222 2.27139 3.69882 2.76407 3.06366 3.51582C2.42809 4.26813 2.07155 5.29128 2.07147 6.51582V14.0842C2.07156 15.4456 2.51216 16.5532 3.27948 17.3205C4.0468 18.0878 5.15436 18.5284 6.51581 18.5285H16.2463C17.6077 18.5284 18.7163 18.0878 19.4836 17.3205C20.2506 16.5532 20.6905 15.4454 20.6906 14.0842V13.4768H19.5324C17.8283 13.4768 16.3732 12.2122 16.2365 10.5715V10.5705C16.1468 9.63957 16.4885 8.70988 17.1691 8.05196C17.7597 7.45156 18.5536 7.12328 19.4025 7.12325H20.6906V6.51582C20.6905 5.28063 20.3291 4.24926 19.6857 3.49434C19.0428 2.74001 18.1083 2.25013 16.9416 2.11348L16.9348 2.1125C16.6892 2.07159 16.4739 2.07149 16.2463 2.07149H6.51581C6.3903 2.0715 6.26709 2.07692 6.14471 2.08614Z" fill="#ECEAE7" stroke="#ECEAE7" stroke-width="0.3"/>
</g>
</svg>
