<svg width="25" height="25" viewBox="0 0 25 25" fill="none" xmlns="http://www.w3.org/2000/svg">
<g opacity="0.6">
<path d="M12.5 8.51855C13.5559 8.51855 14.5688 8.93794 15.3154 9.68457C16.0621 10.4312 16.4814 11.4441 16.4814 12.5C16.4814 13.5559 16.0621 14.5688 15.3154 15.3154C14.5688 16.0621 13.5559 16.4814 12.5 16.4814C11.4441 16.4814 10.4312 16.0621 9.68457 15.3154C8.93794 14.5688 8.51855 13.5559 8.51855 12.5C8.51855 11.4441 8.93794 10.4312 9.68457 9.68457C10.4312 8.93794 11.4441 8.51855 12.5 8.51855ZM12.5 10.2314C11.8983 10.2314 11.321 10.47 10.8955 10.8955C10.47 11.321 10.2314 11.8983 10.2314 12.5C10.2314 13.1017 10.47 13.679 10.8955 14.1045C11.321 14.53 11.8983 14.7686 12.5 14.7686C13.1017 14.7686 13.679 14.53 14.1045 14.1045C14.53 13.679 14.7686 13.1017 14.7686 12.5C14.7686 11.8983 14.53 11.321 14.1045 10.8955C13.679 10.47 13.1017 10.2314 12.5 10.2314Z" fill="#ECEAE7" stroke="#ECEAE7" stroke-width="0.15"/>
<mask id="path-2-outside-1_1_23" maskUnits="userSpaceOnUse" x="0.8974" y="0.302086" width="23" height="24" fill="black">
<rect fill="white" x="0.8974" y="0.302086" width="23" height="24"/>
<path fill-rule="evenodd" clip-rule="evenodd" d="M12.4739 1.30209C12.0104 1.30209 11.6239 1.30209 11.3073 1.32292C10.9836 1.3364 10.6644 1.40327 10.3625 1.52084C10.0148 1.66468 9.69892 1.8756 9.43279 2.14155C9.16666 2.4075 8.95552 2.72328 8.81145 3.07084C8.66041 3.43542 8.61978 3.82084 8.60311 4.23959C8.60145 4.39273 8.56091 4.54295 8.48529 4.67614C8.40968 4.80932 8.30147 4.92112 8.17082 5.00104C8.03632 5.07449 7.88537 5.11254 7.73213 5.11163C7.57889 5.11071 7.4284 5.07087 7.29478 4.99584C6.92395 4.8 6.56978 4.64271 6.17811 4.59063C5.80514 4.54157 5.42615 4.56645 5.0628 4.66386C4.69944 4.76127 4.35883 4.92929 4.06041 5.15834C3.80809 5.36134 3.59094 5.60452 3.4177 5.87813C3.24061 6.14271 3.04686 6.47709 2.81561 6.87813L2.78957 6.92396C2.55728 7.325 2.36457 7.65938 2.22499 7.94479C2.07916 8.24271 1.96457 8.53646 1.92291 8.86146C1.82353 9.61458 2.02736 10.3763 2.48957 10.9792C2.7302 11.2927 3.04374 11.5208 3.39791 11.7438C3.52995 11.8218 3.63996 11.9322 3.71759 12.0645C3.79522 12.1968 3.83791 12.3467 3.84166 12.5C3.83791 12.6533 3.79522 12.8032 3.71759 12.9355C3.63996 13.0678 3.52995 13.1782 3.39791 13.2563C3.04374 13.4792 2.73124 13.7073 2.48957 14.0208C2.26053 14.3193 2.0925 14.6599 1.9951 15.0232C1.89769 15.3866 1.8728 15.7656 1.92186 16.1385C1.96457 16.4635 2.07811 16.7573 2.22395 17.0552C2.36457 17.3406 2.55728 17.675 2.78957 18.076L2.81561 18.1219C3.04686 18.5229 3.24061 18.8573 3.4177 19.1219C3.60207 19.3958 3.79999 19.6427 4.06041 19.8406C4.35875 20.0699 4.69933 20.2381 5.06269 20.3357C5.42605 20.4332 5.80507 20.4583 6.17811 20.4094C6.56978 20.3573 6.92395 20.201 7.29478 20.0042C7.42824 19.9292 7.57855 19.8894 7.73161 19.8885C7.88466 19.8876 8.03544 19.9256 8.16978 19.999C8.30115 20.0783 8.41004 20.1899 8.48608 20.3232C8.56211 20.4564 8.60276 20.607 8.60416 20.7604C8.61978 21.1792 8.66041 21.5646 8.81249 21.9292C8.95633 22.2768 9.16725 22.5927 9.43321 22.8589C9.69916 23.125 10.0149 23.3361 10.3625 23.4802C10.6646 23.6052 10.9771 23.6542 11.3073 23.676C11.6239 23.6979 12.0104 23.6979 12.4739 23.6979H12.526C12.9896 23.6979 13.376 23.6979 13.6927 23.6771C14.0239 23.6542 14.3354 23.6052 14.6375 23.4792C14.9851 23.3353 15.3011 23.1244 15.5672 22.8585C15.8333 22.5925 16.0445 22.2767 16.1885 21.9292C16.3396 21.5646 16.3802 21.1792 16.3969 20.7604C16.3984 20.6071 16.4388 20.4567 16.5144 20.3233C16.5901 20.1899 16.6984 20.0779 16.8292 19.9979C16.9637 19.9246 17.1147 19.8868 17.268 19.8879C17.4212 19.889 17.5717 19.929 17.7052 20.0042C18.076 20.2 18.4302 20.3573 18.8219 20.4083C19.575 20.5077 20.3367 20.3039 20.9396 19.8417C21.2 19.6417 21.3979 19.3958 21.5823 19.1219C21.7594 18.8573 21.9531 18.5229 22.1844 18.1219L22.2104 18.076C22.4427 17.675 22.6354 17.3406 22.775 17.0552C22.9208 16.7573 23.0354 16.4625 23.0771 16.1385C23.1764 15.3854 22.9726 14.6237 22.5104 14.0208C22.2698 13.7073 21.9562 13.4792 21.6021 13.2563C21.47 13.1782 21.36 13.0678 21.2824 12.9355C21.2048 12.8032 21.1621 12.6533 21.1583 12.5C21.1583 12.2104 21.3167 11.9229 21.6021 11.7438C21.9562 11.5208 22.2687 11.2927 22.5104 10.9792C22.7395 10.6807 22.9075 10.3401 23.0049 9.97678C23.1023 9.61342 23.1272 9.23444 23.0781 8.86146C23.0285 8.54137 22.9265 8.23165 22.776 7.94479C22.5982 7.5987 22.4096 7.25825 22.2104 6.92396L22.1844 6.87813C21.9941 6.53864 21.7933 6.20514 21.5823 5.87813C21.409 5.60481 21.1919 5.36197 20.9396 5.15938C20.6412 4.93015 20.3007 4.76194 19.9373 4.66435C19.5739 4.56677 19.1949 4.54171 18.8219 4.59063C18.4302 4.64271 18.076 4.79896 17.7052 4.99584C17.5717 5.07069 17.4214 5.11043 17.2684 5.11134C17.1153 5.11225 16.9646 5.0743 16.8302 5.00104C16.6992 4.92138 16.5905 4.80969 16.5146 4.67648C16.4386 4.54327 16.3977 4.39293 16.3958 4.23959C16.3802 3.82084 16.3396 3.43542 16.1875 3.07084C16.0436 2.72318 15.8327 2.40726 15.5668 2.14113C15.3008 1.875 14.985 1.66387 14.6375 1.51979C14.3354 1.39479 14.0229 1.34584 13.6927 1.32396C13.376 1.30209 12.9896 1.30209 12.526 1.30209H12.4739ZM10.9604 2.96354C11.0406 2.93021 11.1625 2.9 11.4135 2.88229C11.6708 2.86459 12.0042 2.86459 12.5 2.86459C12.9958 2.86459 13.3292 2.86459 13.5864 2.88229C13.8375 2.9 13.9594 2.93021 14.0396 2.96354C14.3594 3.09584 14.6125 3.34896 14.7448 3.66875C14.7864 3.76875 14.8208 3.92604 14.8344 4.29792C14.8656 5.12292 15.2917 5.91771 16.0479 6.35417C16.8042 6.79167 17.7052 6.7625 18.4354 6.37709C18.7646 6.20313 18.9177 6.15417 19.026 6.14063C19.3683 6.0954 19.7145 6.18795 19.9885 6.39792C20.0573 6.45105 20.1448 6.54167 20.2854 6.75C20.4302 6.96459 20.5969 7.25313 20.8448 7.68229C21.0927 8.11146 21.2583 8.40104 21.3719 8.63229C21.4833 8.85834 21.5177 8.97917 21.5281 9.06563C21.5733 9.40788 21.4808 9.75409 21.2708 10.0281C21.2042 10.1146 21.0854 10.2229 20.7708 10.4208C20.0708 10.8604 19.5958 11.6271 19.5958 12.5C19.5958 13.3729 20.0708 14.1396 20.7708 14.5792C21.0854 14.7771 21.2042 14.8854 21.2708 14.9719C21.4812 15.2458 21.5729 15.5917 21.5281 15.9344C21.5177 16.0208 21.4823 16.1427 21.3719 16.3677C21.2583 16.6 21.0927 16.8885 20.8448 17.3177C20.5969 17.7469 20.4292 18.0354 20.2854 18.25C20.1448 18.4583 20.0573 18.549 19.9885 18.6021C19.7145 18.8121 19.3683 18.9046 19.026 18.8594C18.9177 18.8458 18.7656 18.7969 18.4354 18.6229C17.7062 18.2375 16.8042 18.2083 16.0479 18.6448C15.2917 19.0823 14.8656 19.8771 14.8344 20.7021C14.8208 21.074 14.7864 21.2313 14.7448 21.3313C14.6793 21.4894 14.5834 21.633 14.4624 21.7541C14.3414 21.8751 14.1977 21.971 14.0396 22.0365C13.9594 22.0698 13.8375 22.1 13.5864 22.1177C13.3292 22.1354 12.9958 22.1354 12.5 22.1354C12.0042 22.1354 11.6708 22.1354 11.4135 22.1177C11.1625 22.1 11.0406 22.0698 10.9604 22.0365C10.8023 21.971 10.6586 21.8751 10.5376 21.7541C10.4166 21.633 10.3206 21.4894 10.2552 21.3313C10.2135 21.2313 10.1792 21.074 10.1656 20.7021C10.1344 19.8771 9.70832 19.0823 8.95207 18.6458C8.19582 18.2083 7.29478 18.2375 6.56457 18.6229C6.23541 18.7969 6.08228 18.8458 5.97395 18.8594C5.63169 18.9046 5.28549 18.8121 5.01145 18.6021C4.9427 18.549 4.8552 18.4583 4.71457 18.25C4.51865 17.945 4.3321 17.6341 4.1552 17.3177C3.90728 16.8885 3.74166 16.599 3.62811 16.3677C3.51666 16.1417 3.48228 16.0208 3.47186 15.9344C3.42664 15.5921 3.51919 15.2459 3.72916 14.9719C3.79582 14.8854 3.91457 14.7771 4.22916 14.5792C4.92916 14.1396 5.40416 13.3729 5.40416 12.5C5.40416 11.6271 4.92916 10.8604 4.22916 10.4208C3.91457 10.2229 3.79582 10.1146 3.72916 10.0281C3.51919 9.75409 3.42664 9.40788 3.47186 9.06563C3.48228 8.97917 3.5177 8.85729 3.62811 8.63229C3.74166 8.4 3.90728 8.11146 4.1552 7.68229C4.40311 7.25313 4.57082 6.96459 4.71457 6.75C4.8552 6.54167 4.9427 6.45105 5.01145 6.39792C5.28549 6.18795 5.63169 6.0954 5.97395 6.14063C6.08228 6.15417 6.23436 6.20313 6.56457 6.37709C7.29374 6.7625 8.19582 6.79167 8.95207 6.35417C9.70832 5.91771 10.1344 5.12292 10.1656 4.29792C10.1792 3.92604 10.2135 3.76875 10.2552 3.66875C10.3875 3.34896 10.6406 3.09584 10.9604 2.96354Z"/>
</mask>
<path fill-rule="evenodd" clip-rule="evenodd" d="M12.4739 1.30209C12.0104 1.30209 11.6239 1.30209 11.3073 1.32292C10.9836 1.3364 10.6644 1.40327 10.3625 1.52084C10.0148 1.66468 9.69892 1.8756 9.43279 2.14155C9.16666 2.4075 8.95552 2.72328 8.81145 3.07084C8.66041 3.43542 8.61978 3.82084 8.60311 4.23959C8.60145 4.39273 8.56091 4.54295 8.48529 4.67614C8.40968 4.80932 8.30147 4.92112 8.17082 5.00104C8.03632 5.07449 7.88537 5.11254 7.73213 5.11163C7.57889 5.11071 7.4284 5.07087 7.29478 4.99584C6.92395 4.8 6.56978 4.64271 6.17811 4.59063C5.80514 4.54157 5.42615 4.56645 5.0628 4.66386C4.69944 4.76127 4.35883 4.92929 4.06041 5.15834C3.80809 5.36134 3.59094 5.60452 3.4177 5.87813C3.24061 6.14271 3.04686 6.47709 2.81561 6.87813L2.78957 6.92396C2.55728 7.325 2.36457 7.65938 2.22499 7.94479C2.07916 8.24271 1.96457 8.53646 1.92291 8.86146C1.82353 9.61458 2.02736 10.3763 2.48957 10.9792C2.7302 11.2927 3.04374 11.5208 3.39791 11.7438C3.52995 11.8218 3.63996 11.9322 3.71759 12.0645C3.79522 12.1968 3.83791 12.3467 3.84166 12.5C3.83791 12.6533 3.79522 12.8032 3.71759 12.9355C3.63996 13.0678 3.52995 13.1782 3.39791 13.2563C3.04374 13.4792 2.73124 13.7073 2.48957 14.0208C2.26053 14.3193 2.0925 14.6599 1.9951 15.0232C1.89769 15.3866 1.8728 15.7656 1.92186 16.1385C1.96457 16.4635 2.07811 16.7573 2.22395 17.0552C2.36457 17.3406 2.55728 17.675 2.78957 18.076L2.81561 18.1219C3.04686 18.5229 3.24061 18.8573 3.4177 19.1219C3.60207 19.3958 3.79999 19.6427 4.06041 19.8406C4.35875 20.0699 4.69933 20.2381 5.06269 20.3357C5.42605 20.4332 5.80507 20.4583 6.17811 20.4094C6.56978 20.3573 6.92395 20.201 7.29478 20.0042C7.42824 19.9292 7.57855 19.8894 7.73161 19.8885C7.88466 19.8876 8.03544 19.9256 8.16978 19.999C8.30115 20.0783 8.41004 20.1899 8.48608 20.3232C8.56211 20.4564 8.60276 20.607 8.60416 20.7604C8.61978 21.1792 8.66041 21.5646 8.81249 21.9292C8.95633 22.2768 9.16725 22.5927 9.43321 22.8589C9.69916 23.125 10.0149 23.3361 10.3625 23.4802C10.6646 23.6052 10.9771 23.6542 11.3073 23.676C11.6239 23.6979 12.0104 23.6979 12.4739 23.6979H12.526C12.9896 23.6979 13.376 23.6979 13.6927 23.6771C14.0239 23.6542 14.3354 23.6052 14.6375 23.4792C14.9851 23.3353 15.3011 23.1244 15.5672 22.8585C15.8333 22.5925 16.0445 22.2767 16.1885 21.9292C16.3396 21.5646 16.3802 21.1792 16.3969 20.7604C16.3984 20.6071 16.4388 20.4567 16.5144 20.3233C16.5901 20.1899 16.6984 20.0779 16.8292 19.9979C16.9637 19.9246 17.1147 19.8868 17.268 19.8879C17.4212 19.889 17.5717 19.929 17.7052 20.0042C18.076 20.2 18.4302 20.3573 18.8219 20.4083C19.575 20.5077 20.3367 20.3039 20.9396 19.8417C21.2 19.6417 21.3979 19.3958 21.5823 19.1219C21.7594 18.8573 21.9531 18.5229 22.1844 18.1219L22.2104 18.076C22.4427 17.675 22.6354 17.3406 22.775 17.0552C22.9208 16.7573 23.0354 16.4625 23.0771 16.1385C23.1764 15.3854 22.9726 14.6237 22.5104 14.0208C22.2698 13.7073 21.9562 13.4792 21.6021 13.2563C21.47 13.1782 21.36 13.0678 21.2824 12.9355C21.2048 12.8032 21.1621 12.6533 21.1583 12.5C21.1583 12.2104 21.3167 11.9229 21.6021 11.7438C21.9562 11.5208 22.2687 11.2927 22.5104 10.9792C22.7395 10.6807 22.9075 10.3401 23.0049 9.97678C23.1023 9.61342 23.1272 9.23444 23.0781 8.86146C23.0285 8.54137 22.9265 8.23165 22.776 7.94479C22.5982 7.5987 22.4096 7.25825 22.2104 6.92396L22.1844 6.87813C21.9941 6.53864 21.7933 6.20514 21.5823 5.87813C21.409 5.60481 21.1919 5.36197 20.9396 5.15938C20.6412 4.93015 20.3007 4.76194 19.9373 4.66435C19.5739 4.56677 19.1949 4.54171 18.8219 4.59063C18.4302 4.64271 18.076 4.79896 17.7052 4.99584C17.5717 5.07069 17.4214 5.11043 17.2684 5.11134C17.1153 5.11225 16.9646 5.0743 16.8302 5.00104C16.6992 4.92138 16.5905 4.80969 16.5146 4.67648C16.4386 4.54327 16.3977 4.39293 16.3958 4.23959C16.3802 3.82084 16.3396 3.43542 16.1875 3.07084C16.0436 2.72318 15.8327 2.40726 15.5668 2.14113C15.3008 1.875 14.985 1.66387 14.6375 1.51979C14.3354 1.39479 14.0229 1.34584 13.6927 1.32396C13.376 1.30209 12.9896 1.30209 12.526 1.30209H12.4739ZM10.9604 2.96354C11.0406 2.93021 11.1625 2.9 11.4135 2.88229C11.6708 2.86459 12.0042 2.86459 12.5 2.86459C12.9958 2.86459 13.3292 2.86459 13.5864 2.88229C13.8375 2.9 13.9594 2.93021 14.0396 2.96354C14.3594 3.09584 14.6125 3.34896 14.7448 3.66875C14.7864 3.76875 14.8208 3.92604 14.8344 4.29792C14.8656 5.12292 15.2917 5.91771 16.0479 6.35417C16.8042 6.79167 17.7052 6.7625 18.4354 6.37709C18.7646 6.20313 18.9177 6.15417 19.026 6.14063C19.3683 6.0954 19.7145 6.18795 19.9885 6.39792C20.0573 6.45105 20.1448 6.54167 20.2854 6.75C20.4302 6.96459 20.5969 7.25313 20.8448 7.68229C21.0927 8.11146 21.2583 8.40104 21.3719 8.63229C21.4833 8.85834 21.5177 8.97917 21.5281 9.06563C21.5733 9.40788 21.4808 9.75409 21.2708 10.0281C21.2042 10.1146 21.0854 10.2229 20.7708 10.4208C20.0708 10.8604 19.5958 11.6271 19.5958 12.5C19.5958 13.3729 20.0708 14.1396 20.7708 14.5792C21.0854 14.7771 21.2042 14.8854 21.2708 14.9719C21.4812 15.2458 21.5729 15.5917 21.5281 15.9344C21.5177 16.0208 21.4823 16.1427 21.3719 16.3677C21.2583 16.6 21.0927 16.8885 20.8448 17.3177C20.5969 17.7469 20.4292 18.0354 20.2854 18.25C20.1448 18.4583 20.0573 18.549 19.9885 18.6021C19.7145 18.8121 19.3683 18.9046 19.026 18.8594C18.9177 18.8458 18.7656 18.7969 18.4354 18.6229C17.7062 18.2375 16.8042 18.2083 16.0479 18.6448C15.2917 19.0823 14.8656 19.8771 14.8344 20.7021C14.8208 21.074 14.7864 21.2313 14.7448 21.3313C14.6793 21.4894 14.5834 21.633 14.4624 21.7541C14.3414 21.8751 14.1977 21.971 14.0396 22.0365C13.9594 22.0698 13.8375 22.1 13.5864 22.1177C13.3292 22.1354 12.9958 22.1354 12.5 22.1354C12.0042 22.1354 11.6708 22.1354 11.4135 22.1177C11.1625 22.1 11.0406 22.0698 10.9604 22.0365C10.8023 21.971 10.6586 21.8751 10.5376 21.7541C10.4166 21.633 10.3206 21.4894 10.2552 21.3313C10.2135 21.2313 10.1792 21.074 10.1656 20.7021C10.1344 19.8771 9.70832 19.0823 8.95207 18.6458C8.19582 18.2083 7.29478 18.2375 6.56457 18.6229C6.23541 18.7969 6.08228 18.8458 5.97395 18.8594C5.63169 18.9046 5.28549 18.8121 5.01145 18.6021C4.9427 18.549 4.8552 18.4583 4.71457 18.25C4.51865 17.945 4.3321 17.6341 4.1552 17.3177C3.90728 16.8885 3.74166 16.599 3.62811 16.3677C3.51666 16.1417 3.48228 16.0208 3.47186 15.9344C3.42664 15.5921 3.51919 15.2459 3.72916 14.9719C3.79582 14.8854 3.91457 14.7771 4.22916 14.5792C4.92916 14.1396 5.40416 13.3729 5.40416 12.5C5.40416 11.6271 4.92916 10.8604 4.22916 10.4208C3.91457 10.2229 3.79582 10.1146 3.72916 10.0281C3.51919 9.75409 3.42664 9.40788 3.47186 9.06563C3.48228 8.97917 3.5177 8.85729 3.62811 8.63229C3.74166 8.4 3.90728 8.11146 4.1552 7.68229C4.40311 7.25313 4.57082 6.96459 4.71457 6.75C4.8552 6.54167 4.9427 6.45105 5.01145 6.39792C5.28549 6.18795 5.63169 6.0954 5.97395 6.14063C6.08228 6.15417 6.23436 6.20313 6.56457 6.37709C7.29374 6.7625 8.19582 6.79167 8.95207 6.35417C9.70832 5.91771 10.1344 5.12292 10.1656 4.29792C10.1792 3.92604 10.2135 3.76875 10.2552 3.66875C10.3875 3.34896 10.6406 3.09584 10.9604 2.96354Z" fill="#ECEAE7"/>
<path fill-rule="evenodd" clip-rule="evenodd" d="M12.4739 1.30209C12.0104 1.30209 11.6239 1.30209 11.3073 1.32292C10.9836 1.3364 10.6644 1.40327 10.3625 1.52084C10.0148 1.66468 9.69892 1.8756 9.43279 2.14155C9.16666 2.4075 8.95552 2.72328 8.81145 3.07084C8.66041 3.43542 8.61978 3.82084 8.60311 4.23959C8.60145 4.39273 8.56091 4.54295 8.48529 4.67614C8.40968 4.80932 8.30147 4.92112 8.17082 5.00104C8.03632 5.07449 7.88537 5.11254 7.73213 5.11163C7.57889 5.11071 7.4284 5.07087 7.29478 4.99584C6.92395 4.8 6.56978 4.64271 6.17811 4.59063C5.80514 4.54157 5.42615 4.56645 5.0628 4.66386C4.69944 4.76127 4.35883 4.92929 4.06041 5.15834C3.80809 5.36134 3.59094 5.60452 3.4177 5.87813C3.24061 6.14271 3.04686 6.47709 2.81561 6.87813L2.78957 6.92396C2.55728 7.325 2.36457 7.65938 2.22499 7.94479C2.07916 8.24271 1.96457 8.53646 1.92291 8.86146C1.82353 9.61458 2.02736 10.3763 2.48957 10.9792C2.7302 11.2927 3.04374 11.5208 3.39791 11.7438C3.52995 11.8218 3.63996 11.9322 3.71759 12.0645C3.79522 12.1968 3.83791 12.3467 3.84166 12.5C3.83791 12.6533 3.79522 12.8032 3.71759 12.9355C3.63996 13.0678 3.52995 13.1782 3.39791 13.2563C3.04374 13.4792 2.73124 13.7073 2.48957 14.0208C2.26053 14.3193 2.0925 14.6599 1.9951 15.0232C1.89769 15.3866 1.8728 15.7656 1.92186 16.1385C1.96457 16.4635 2.07811 16.7573 2.22395 17.0552C2.36457 17.3406 2.55728 17.675 2.78957 18.076L2.81561 18.1219C3.04686 18.5229 3.24061 18.8573 3.4177 19.1219C3.60207 19.3958 3.79999 19.6427 4.06041 19.8406C4.35875 20.0699 4.69933 20.2381 5.06269 20.3357C5.42605 20.4332 5.80507 20.4583 6.17811 20.4094C6.56978 20.3573 6.92395 20.201 7.29478 20.0042C7.42824 19.9292 7.57855 19.8894 7.73161 19.8885C7.88466 19.8876 8.03544 19.9256 8.16978 19.999C8.30115 20.0783 8.41004 20.1899 8.48608 20.3232C8.56211 20.4564 8.60276 20.607 8.60416 20.7604C8.61978 21.1792 8.66041 21.5646 8.81249 21.9292C8.95633 22.2768 9.16725 22.5927 9.43321 22.8589C9.69916 23.125 10.0149 23.3361 10.3625 23.4802C10.6646 23.6052 10.9771 23.6542 11.3073 23.676C11.6239 23.6979 12.0104 23.6979 12.4739 23.6979H12.526C12.9896 23.6979 13.376 23.6979 13.6927 23.6771C14.0239 23.6542 14.3354 23.6052 14.6375 23.4792C14.9851 23.3353 15.3011 23.1244 15.5672 22.8585C15.8333 22.5925 16.0445 22.2767 16.1885 21.9292C16.3396 21.5646 16.3802 21.1792 16.3969 20.7604C16.3984 20.6071 16.4388 20.4567 16.5144 20.3233C16.5901 20.1899 16.6984 20.0779 16.8292 19.9979C16.9637 19.9246 17.1147 19.8868 17.268 19.8879C17.4212 19.889 17.5717 19.929 17.7052 20.0042C18.076 20.2 18.4302 20.3573 18.8219 20.4083C19.575 20.5077 20.3367 20.3039 20.9396 19.8417C21.2 19.6417 21.3979 19.3958 21.5823 19.1219C21.7594 18.8573 21.9531 18.5229 22.1844 18.1219L22.2104 18.076C22.4427 17.675 22.6354 17.3406 22.775 17.0552C22.9208 16.7573 23.0354 16.4625 23.0771 16.1385C23.1764 15.3854 22.9726 14.6237 22.5104 14.0208C22.2698 13.7073 21.9562 13.4792 21.6021 13.2563C21.47 13.1782 21.36 13.0678 21.2824 12.9355C21.2048 12.8032 21.1621 12.6533 21.1583 12.5C21.1583 12.2104 21.3167 11.9229 21.6021 11.7438C21.9562 11.5208 22.2687 11.2927 22.5104 10.9792C22.7395 10.6807 22.9075 10.3401 23.0049 9.97678C23.1023 9.61342 23.1272 9.23444 23.0781 8.86146C23.0285 8.54137 22.9265 8.23165 22.776 7.94479C22.5982 7.5987 22.4096 7.25825 22.2104 6.92396L22.1844 6.87813C21.9941 6.53864 21.7933 6.20514 21.5823 5.87813C21.409 5.60481 21.1919 5.36197 20.9396 5.15938C20.6412 4.93015 20.3007 4.76194 19.9373 4.66435C19.5739 4.56677 19.1949 4.54171 18.8219 4.59063C18.4302 4.64271 18.076 4.79896 17.7052 4.99584C17.5717 5.07069 17.4214 5.11043 17.2684 5.11134C17.1153 5.11225 16.9646 5.0743 16.8302 5.00104C16.6992 4.92138 16.5905 4.80969 16.5146 4.67648C16.4386 4.54327 16.3977 4.39293 16.3958 4.23959C16.3802 3.82084 16.3396 3.43542 16.1875 3.07084C16.0436 2.72318 15.8327 2.40726 15.5668 2.14113C15.3008 1.875 14.985 1.66387 14.6375 1.51979C14.3354 1.39479 14.0229 1.34584 13.6927 1.32396C13.376 1.30209 12.9896 1.30209 12.526 1.30209H12.4739ZM10.9604 2.96354C11.0406 2.93021 11.1625 2.9 11.4135 2.88229C11.6708 2.86459 12.0042 2.86459 12.5 2.86459C12.9958 2.86459 13.3292 2.86459 13.5864 2.88229C13.8375 2.9 13.9594 2.93021 14.0396 2.96354C14.3594 3.09584 14.6125 3.34896 14.7448 3.66875C14.7864 3.76875 14.8208 3.92604 14.8344 4.29792C14.8656 5.12292 15.2917 5.91771 16.0479 6.35417C16.8042 6.79167 17.7052 6.7625 18.4354 6.37709C18.7646 6.20313 18.9177 6.15417 19.026 6.14063C19.3683 6.0954 19.7145 6.18795 19.9885 6.39792C20.0573 6.45105 20.1448 6.54167 20.2854 6.75C20.4302 6.96459 20.5969 7.25313 20.8448 7.68229C21.0927 8.11146 21.2583 8.40104 21.3719 8.63229C21.4833 8.85834 21.5177 8.97917 21.5281 9.06563C21.5733 9.40788 21.4808 9.75409 21.2708 10.0281C21.2042 10.1146 21.0854 10.2229 20.7708 10.4208C20.0708 10.8604 19.5958 11.6271 19.5958 12.5C19.5958 13.3729 20.0708 14.1396 20.7708 14.5792C21.0854 14.7771 21.2042 14.8854 21.2708 14.9719C21.4812 15.2458 21.5729 15.5917 21.5281 15.9344C21.5177 16.0208 21.4823 16.1427 21.3719 16.3677C21.2583 16.6 21.0927 16.8885 20.8448 17.3177C20.5969 17.7469 20.4292 18.0354 20.2854 18.25C20.1448 18.4583 20.0573 18.549 19.9885 18.6021C19.7145 18.8121 19.3683 18.9046 19.026 18.8594C18.9177 18.8458 18.7656 18.7969 18.4354 18.6229C17.7062 18.2375 16.8042 18.2083 16.0479 18.6448C15.2917 19.0823 14.8656 19.8771 14.8344 20.7021C14.8208 21.074 14.7864 21.2313 14.7448 21.3313C14.6793 21.4894 14.5834 21.633 14.4624 21.7541C14.3414 21.8751 14.1977 21.971 14.0396 22.0365C13.9594 22.0698 13.8375 22.1 13.5864 22.1177C13.3292 22.1354 12.9958 22.1354 12.5 22.1354C12.0042 22.1354 11.6708 22.1354 11.4135 22.1177C11.1625 22.1 11.0406 22.0698 10.9604 22.0365C10.8023 21.971 10.6586 21.8751 10.5376 21.7541C10.4166 21.633 10.3206 21.4894 10.2552 21.3313C10.2135 21.2313 10.1792 21.074 10.1656 20.7021C10.1344 19.8771 9.70832 19.0823 8.95207 18.6458C8.19582 18.2083 7.29478 18.2375 6.56457 18.6229C6.23541 18.7969 6.08228 18.8458 5.97395 18.8594C5.63169 18.9046 5.28549 18.8121 5.01145 18.6021C4.9427 18.549 4.8552 18.4583 4.71457 18.25C4.51865 17.945 4.3321 17.6341 4.1552 17.3177C3.90728 16.8885 3.74166 16.599 3.62811 16.3677C3.51666 16.1417 3.48228 16.0208 3.47186 15.9344C3.42664 15.5921 3.51919 15.2459 3.72916 14.9719C3.79582 14.8854 3.91457 14.7771 4.22916 14.5792C4.92916 14.1396 5.40416 13.3729 5.40416 12.5C5.40416 11.6271 4.92916 10.8604 4.22916 10.4208C3.91457 10.2229 3.79582 10.1146 3.72916 10.0281C3.51919 9.75409 3.42664 9.40788 3.47186 9.06563C3.48228 8.97917 3.5177 8.85729 3.62811 8.63229C3.74166 8.4 3.90728 8.11146 4.1552 7.68229C4.40311 7.25313 4.57082 6.96459 4.71457 6.75C4.8552 6.54167 4.9427 6.45105 5.01145 6.39792C5.28549 6.18795 5.63169 6.0954 5.97395 6.14063C6.08228 6.15417 6.23436 6.20313 6.56457 6.37709C7.29374 6.7625 8.19582 6.79167 8.95207 6.35417C9.70832 5.91771 10.1344 5.12292 10.1656 4.29792C10.1792 3.92604 10.2135 3.76875 10.2552 3.66875C10.3875 3.34896 10.6406 3.09584 10.9604 2.96354Z" stroke="#ECEAE7" stroke-width="0.3" mask="url(#path-2-outside-1_1_23)"/>
</g>
</svg>
