<svg width="16" height="16" viewBox="0 0 16 16" fill="none" xmlns="http://www.w3.org/2000/svg">
<path d="M13.0791 12.2964L15.2444 14.4605C15.3454 14.5651 15.4012 14.7051 15.4 14.8505C15.3987 14.9958 15.3404 15.1348 15.2376 15.2376C15.1349 15.3404 14.9958 15.3987 14.8505 15.4C14.7051 15.4012 14.5651 15.3454 14.4605 15.2444L12.2953 13.0791C10.8803 14.2914 9.0508 14.9085 7.19063 14.801C5.33047 14.6935 3.58426 13.8696 2.31841 12.5024C1.05256 11.1351 0.365478 9.33073 0.401338 7.46781C0.437198 5.60489 1.19321 3.82826 2.51074 2.51073C3.82827 1.1932 5.6049 0.43719 7.46782 0.40133C9.33074 0.36547 11.1351 1.05255 12.5024 2.3184C13.8697 3.58425 14.6935 5.33046 14.801 7.19063C14.9085 9.05079 14.2914 10.8803 13.0791 12.2953V12.2964ZM7.6066 13.7044C9.22384 13.7044 10.7748 13.062 11.9184 11.9184C13.062 10.7748 13.7044 9.22383 13.7044 7.60659C13.7044 5.98935 13.062 4.43835 11.9184 3.29479C10.7748 2.15122 9.22384 1.50878 7.6066 1.50878C5.98936 1.50878 4.43836 2.15122 3.29479 3.29479C2.15123 4.43835 1.50879 5.98935 1.50879 7.60659C1.50879 9.22383 2.15123 10.7748 3.29479 11.9184C4.43836 13.062 5.98936 13.7044 7.6066 13.7044Z" fill="#E4E4E4" fill-opacity="0.6"/>
<path d="M7.46445 0.201752C9.37887 0.165024 11.2332 0.870653 12.6383 2.17148C14.0435 3.47246 14.8901 5.2675 15.0006 7.17929C15.1075 9.02945 14.5148 10.8483 13.3473 12.2818L15.3854 14.3189L15.3883 14.3219C15.5256 14.4641 15.6019 14.6545 15.6002 14.8521C15.5985 15.0499 15.5194 15.2396 15.3795 15.3795C15.2396 15.5193 15.0499 15.5985 14.8521 15.6002C14.6545 15.6019 14.4641 15.5256 14.3219 15.3883L12.2818 13.3482C10.8484 14.5155 9.02925 15.1075 7.1793 15.0006C5.26751 14.8901 3.47247 14.0435 2.17149 12.6383C0.870661 11.2332 0.165032 9.37886 0.201759 7.46445C0.238614 5.54982 1.01563 3.72381 2.36973 2.36972C3.72382 1.01563 5.54983 0.238607 7.46445 0.201752ZM7.60703 1.70859C6.04284 1.70859 4.54219 2.33007 3.43613 3.43613C2.33008 4.54218 1.7086 6.04283 1.7086 7.60703C1.70871 9.17104 2.33022 10.671 3.43613 11.7769C4.54219 12.883 6.04284 13.5045 7.60703 13.5045C9.17107 13.5044 10.671 12.8829 11.777 11.7769C12.8829 10.671 13.5044 9.17107 13.5045 7.60703C13.5045 6.04283 12.883 4.54218 11.777 3.43613C10.671 2.33021 9.17105 1.7087 7.60703 1.70859Z" stroke="#E4E4E4" stroke-opacity="0.6" stroke-width="0.4"/>
</svg>
