<svg width="7" height="6" viewBox="0 0 7 6" fill="none" xmlns="http://www.w3.org/2000/svg">
<path d="M0.0509164 4.76173C-0.0401487 4.89521 -0.0057634 5.07724 0.127718 5.16831C0.2612 5.25937 0.443231 5.22499 0.534296 5.0915L0.292606 4.92662L0.0509164 4.76173ZM1.65372 2.93151L1.59013 2.64593L1.47722 2.67107L1.41203 2.76663L1.65372 2.93151ZM4.17082 2.371L4.23441 2.65658L4.31348 2.63897L4.37223 2.58321L4.17082 2.371ZM6.58078 0.368897C6.58499 0.207366 6.45746 0.0730003 6.29593 0.0687836L3.66363 6.6239e-05C3.5021 -0.00415044 3.36773 0.123378 3.36351 0.28491C3.3593 0.446441 3.48683 0.580806 3.64836 0.585023L5.98818 0.646105L5.9271 2.98593C5.92289 3.14746 6.05041 3.28183 6.21195 3.28605C6.37348 3.29026 6.50784 3.16274 6.51206 3.0012L6.58078 0.368897ZM0.292606 4.92662L0.534296 5.0915L1.89541 3.0964L1.65372 2.93151L1.41203 2.76663L0.0509164 4.76173L0.292606 4.92662ZM1.65372 2.93151L1.71732 3.2171L4.23441 2.65658L4.17082 2.371L4.10723 2.08541L1.59013 2.64593L1.65372 2.93151ZM4.17082 2.371L4.37223 2.58321L6.48971 0.573474L6.2883 0.361262L6.08688 0.14905L3.96941 2.15879L4.17082 2.371Z" fill="#18A800"/>
</svg>
