<svg width="129" height="129" viewBox="0 0 129 129" fill="none" xmlns="http://www.w3.org/2000/svg">
<g filter="url(#filter0_dddddd_16_17)">
<path d="M71.7346 58.0399C71.7346 57.7084 71.603 57.3904 71.3685 57.156C71.1341 56.9216 70.8162 56.7899 70.4846 56.7899L60.4846 56.7274C60.1531 56.7274 59.8352 56.8591 59.6008 57.0935C59.3663 57.3279 59.2346 57.6459 59.2346 57.9774C59.2346 58.3089 59.3663 58.6268 59.6008 58.8613C59.8352 59.0957 60.1531 59.2274 60.4846 59.2274H67.4347L57.0971 69.5899C56.98 69.7061 56.887 69.8443 56.8235 69.9967C56.7601 70.149 56.7274 70.3124 56.7274 70.4774C56.7274 70.6424 56.7601 70.8058 56.8235 70.9581C56.887 71.1104 56.98 71.2487 57.0971 71.3649C57.2134 71.482 57.3516 71.575 57.5039 71.6385C57.6563 71.702 57.8196 71.7346 57.9846 71.7346C58.1497 71.7346 58.313 71.702 58.4654 71.6385C58.6177 71.575 58.7559 71.482 58.8721 71.3649L69.2346 61.0024V67.9774C69.2346 68.3089 69.3663 68.6268 69.6008 68.8613C69.8352 69.0957 70.1531 69.2274 70.4846 69.2274C70.8162 69.2274 71.1341 69.0957 71.3685 68.8613C71.603 68.6268 71.7346 68.3089 71.7346 67.9774V58.0399Z" fill="#2FA15D"/>
</g>
<defs>
<filter id="filter0_dddddd_16_17" x="3.8147e-06" y="-1.14441e-05" width="128.462" height="128.462" filterUnits="userSpaceOnUse" color-interpolation-filters="sRGB">
<feFlood flood-opacity="0" result="BackgroundImageFix"/>
<feColorMatrix in="SourceAlpha" type="matrix" values="0 0 0 0 0 0 0 0 0 0 0 0 0 0 0 0 0 0 127 0" result="hardAlpha"/>
<feOffset/>
<feGaussianBlur stdDeviation="0.675326"/>
<feColorMatrix type="matrix" values="0 0 0 0 0.156863 0 0 0 0 0.423529 0 0 0 0 0.223529 0 0 0 1 0"/>
<feBlend mode="normal" in2="BackgroundImageFix" result="effect1_dropShadow_16_17"/>
<feColorMatrix in="SourceAlpha" type="matrix" values="0 0 0 0 0 0 0 0 0 0 0 0 0 0 0 0 0 0 127 0" result="hardAlpha"/>
<feOffset/>
<feGaussianBlur stdDeviation="1.35065"/>
<feColorMatrix type="matrix" values="0 0 0 0 0.156863 0 0 0 0 0.423529 0 0 0 0 0.223529 0 0 0 1 0"/>
<feBlend mode="normal" in2="effect1_dropShadow_16_17" result="effect2_dropShadow_16_17"/>
<feColorMatrix in="SourceAlpha" type="matrix" values="0 0 0 0 0 0 0 0 0 0 0 0 0 0 0 0 0 0 127 0" result="hardAlpha"/>
<feOffset/>
<feGaussianBlur stdDeviation="4.72728"/>
<feColorMatrix type="matrix" values="0 0 0 0 0.156863 0 0 0 0 0.423529 0 0 0 0 0.223529 0 0 0 1 0"/>
<feBlend mode="normal" in2="effect2_dropShadow_16_17" result="effect3_dropShadow_16_17"/>
<feColorMatrix in="SourceAlpha" type="matrix" values="0 0 0 0 0 0 0 0 0 0 0 0 0 0 0 0 0 0 127 0" result="hardAlpha"/>
<feOffset/>
<feGaussianBlur stdDeviation="9.45457"/>
<feColorMatrix type="matrix" values="0 0 0 0 0.156863 0 0 0 0 0.423529 0 0 0 0 0.223529 0 0 0 1 0"/>
<feBlend mode="normal" in2="effect3_dropShadow_16_17" result="effect4_dropShadow_16_17"/>
<feColorMatrix in="SourceAlpha" type="matrix" values="0 0 0 0 0 0 0 0 0 0 0 0 0 0 0 0 0 0 127 0" result="hardAlpha"/>
<feOffset/>
<feGaussianBlur stdDeviation="16.2078"/>
<feColorMatrix type="matrix" values="0 0 0 0 0.156863 0 0 0 0 0.423529 0 0 0 0 0.223529 0 0 0 1 0"/>
<feBlend mode="normal" in2="effect4_dropShadow_16_17" result="effect5_dropShadow_16_17"/>
<feColorMatrix in="SourceAlpha" type="matrix" values="0 0 0 0 0 0 0 0 0 0 0 0 0 0 0 0 0 0 127 0" result="hardAlpha"/>
<feOffset/>
<feGaussianBlur stdDeviation="28.3637"/>
<feColorMatrix type="matrix" values="0 0 0 0 0.156863 0 0 0 0 0.423529 0 0 0 0 0.223529 0 0 0 1 0"/>
<feBlend mode="normal" in2="effect5_dropShadow_16_17" result="effect6_dropShadow_16_17"/>
<feBlend mode="normal" in="SourceGraphic" in2="effect6_dropShadow_16_17" result="shape"/>
</filter>
</defs>
</svg>
