<svg width="30" height="30" viewBox="0 0 30 30" fill="none" xmlns="http://www.w3.org/2000/svg">
<g clip-path="url(#clip0_102_773)">
<path d="M23.2706 20.3505C23.0709 20.5443 22.7906 20.6323 22.5164 20.5873C22.2416 20.5424 22.0044 20.3703 21.8769 20.1232C21.4385 19.2732 20.8817 18.492 20.2267 17.8015C20.292 18.3003 20.3248 18.8021 20.3248 19.3053C20.3248 20.2707 20.1952 21.2642 19.9394 22.2585C19.0984 25.5244 16.8932 28.2863 13.8893 29.8361C13.6277 29.971 13.3161 29.9662 13.0588 29.8234C12.8015 29.6806 12.633 29.4188 12.6099 29.1258C12.3757 26.1579 10.8442 23.4578 8.40563 21.716C8.37335 21.6928 8.34131 21.6693 8.30928 21.6459C8.24291 21.5974 8.18036 21.5516 8.1219 21.5131C8.11276 21.5071 8.10368 21.5009 8.09478 21.4945C6.56111 20.3985 5.29565 18.9374 4.43504 17.2689C3.56055 15.5717 3.11715 13.7505 3.11715 11.8559C3.11715 10.8908 3.24677 9.89729 3.50244 8.90281C4.85167 3.66102 9.57755 7.43866e-05 14.9949 7.43866e-05C21.544 7.43866e-05 26.872 5.31862 26.872 11.8559C26.872 15.0797 25.5931 18.0965 23.2706 20.3505Z" fill="#1770FE"/>
<ellipse cx="3.52815" cy="3.52165" rx="3.52815" ry="3.52165" transform="matrix(1 0 0 -1 10.5844 15.8474)" fill="#1C1815"/>
</g>
<defs>
<clipPath id="clip0_102_773">
<rect width="29.9893" height="29.934" fill="white" transform="matrix(1 0 0 -1 0 29.934)"/>
</clipPath>
</defs>
</svg>
