<svg width="18" height="18" viewBox="0 0 18 18" fill="none" xmlns="http://www.w3.org/2000/svg">
<path d="M16.0918 7.31445H1.46289M8.0459 10.2402H4.38867M1.46289 5.99785L1.46289 11.5568C1.46289 12.3761 1.46289 12.7858 1.62234 13.0987C1.76259 13.374 1.98638 13.5978 2.26164 13.738C2.57457 13.8975 2.98422 13.8975 3.80352 13.8975L13.7512 13.8975C14.5705 13.8975 14.9801 13.8975 15.293 13.738C15.5683 13.5978 15.7921 13.374 15.9324 13.0987C16.0918 12.7858 16.0918 12.3761 16.0918 11.5568V5.99785C16.0918 5.17856 16.0918 4.76891 15.9324 4.45598C15.7921 4.18072 15.5683 3.95693 15.293 3.81667C14.9801 3.65723 14.5705 3.65723 13.7512 3.65723L3.80352 3.65723C2.98422 3.65723 2.57457 3.65723 2.26164 3.81667C1.98638 3.95692 1.76259 4.18072 1.62234 4.45598C1.46289 4.76891 1.46289 5.17856 1.46289 5.99785Z" stroke="white" stroke-width="1.46289" stroke-linecap="round" stroke-linejoin="round"/>
</svg>
